name C:\Users\u0101727\Documents\MyRepositories\upper-imu-dc\Results\main_tracking\Case_40\FLX01_orientations_groundFrame.mot
datacolumns 13
datarows 25
range 2.01000000 2.25000000
endheader 
time	radius_imu_[0][0]	radius_imu_[0][1]	radius_imu_[0][2]	radius_imu_[1][0]	radius_imu_[1][1]	radius_imu_[1][2]	radius_imu_[2][0]	radius_imu_[2][1]	radius_imu_[2][2]	radius_imu_x	radius_imu_y	radius_imu_z	
          2.01000000	          0.41595151	         -0.87039593	         -0.26342981	         -0.35665564	         -0.42260924	          0.83318556	         -0.83652920	         -0.25261106	         -0.48621657	         -2.09904239	         -0.26657588	          1.12499453	
          2.02000000	          0.42435307	         -0.86441593	         -0.26964712	         -0.36003908	         -0.43431130	          0.82567884	         -0.83084074	         -0.25329585	         -0.49552485	         -2.11132050	         -0.27302656	          1.11444466	
          2.03000000	          0.43295955	         -0.85829987	         -0.27544029	         -0.36367883	         -0.44591645	          0.81786076	         -0.82479315	         -0.25392882	         -0.50520928	         -2.12414374	         -0.27904768	          1.10360418	
          2.04000000	          0.44173984	         -0.85206440	         -0.28080630	         -0.36748494	         -0.45738930	          0.80978383	         -0.81842577	         -0.25452169	         -0.51516791	         -2.13739451	         -0.28463411	          1.09250987	
          2.05000000	          0.45064962	         -0.84572911	         -0.28575723	         -0.37134237	         -0.46869069	          0.80151973	         -0.81180032	         -0.25509080	         -0.52527034	         -2.15091844	         -0.28979651	          1.08121273	
          2.06000000	          0.45962216	         -0.83931733	         -0.29033410	         -0.37509646	         -0.47977841	          0.79316790	         -0.80501560	         -0.25565425	         -0.53534175	         -2.16450565	         -0.29457596	          1.06978660	
          2.07000000	          0.46856270	         -0.83285605	         -0.29461807	         -0.37854899	         -0.49060986	          0.78485835	         -0.79821655	         -0.25622798	         -0.54515829	         -2.17788521	         -0.29905582	          1.05833283	
          2.08000000	          0.47734988	         -0.82637488	         -0.29873341	         -0.38147079	         -0.50114623	          0.77674480	         -0.79159152	         -0.25682097	         -0.55445997	         -2.19074078	         -0.30336518	          1.04697784	
          2.09000000	          0.48584637	         -0.81990384	         -0.30283824	         -0.38363081	         -0.51135781	          0.76898673	         -0.78535387	         -0.25743134	         -0.56298171	         -2.20274819	         -0.30766934	          1.03586162	
          2.10000000	          0.49391816	         -0.81346982	         -0.30710210	         -0.38483614	         -0.52122914	          0.76172261	         -0.77970892	         -0.25804464	         -0.57049712	         -2.21362928	         -0.31214648	          1.02511812	
          2.11000000	          0.50145891	         -0.80709263	         -0.31167362	         -0.38497411	         -0.53076288	          0.75504019	         -0.77481217	         -0.25863536	         -0.57686555	         -2.22320980	         -0.31695388	          1.01485115	
          2.12000000	          0.50841330	         -0.80078150	         -0.31664633	         -0.38404492	         -0.53998085	          0.74895272	         -0.77073044	         -0.25917111	         -0.58206951	         -2.23146562	         -0.32219179	          1.00511212	
          2.13000000	          0.51479214	         -0.79453359	         -0.32203327	         -0.38217396	         -0.54892131	          0.74338985	         -0.76741913	         -0.25961852	         -0.58623042	         -2.23854164	         -0.32787639	          0.99588654	
          2.14000000	          0.52067315	         -0.78833518	         -0.32776074	         -0.37959661	         -0.55763284	          0.73820867	         -0.76472602	         -0.25994857	         -0.58959381	         -2.24473295	         -0.33393241	          0.98709475	
          2.15000000	          0.52618584	         -0.78216529	         -0.33368537	         -0.37661625	         -0.56616657	          0.73322276	         -0.76242289	         -0.26014010	         -0.59248499	         -2.25043015	         -0.34021032	          0.97860796	
          2.16000000	          0.53148561	         -0.77599987	         -0.33962810	         -0.37354821	         -0.57456947	          0.72823873	         -0.76025310	         -0.26018094	         -0.59524877	         -2.25604617	         -0.34652147	          0.97027374	
          2.17000000	          0.53672702	         -0.76981497	         -0.34541138	         -0.37066865	         -0.58288077	          0.72308697	         -0.75797682	         -0.26006714	         -0.59819413	         -2.26195046	         -0.35267711	          0.96194153	
          2.18000000	          0.54204477	         -0.76358771	         -0.35088642	         -0.36818283	         -0.59113189	          0.71763813	         -0.75539981	         -0.25980164	         -0.60155983	         -2.26842896	         -0.35851754	          0.95347969	
          2.19000000	          0.54754578	         -0.75729551	         -0.35594540	         -0.36621564	         -0.59934840	          0.71180587	         -0.75238270	         -0.25939353	         -0.60550415	         -2.27567291	         -0.36392553	          0.94478200	
          2.20000000	          0.55330914	         -0.75091491	         -0.36052155	         -0.36481713	         -0.60755178	          0.70554185	         -0.74883740	         -0.25885832	         -0.61011058	         -2.28378598	         -0.36882698	          0.93576664	
          2.21000000	          0.55938772	         -0.74442130	         -0.36458512	         -0.36397201	         -0.61575981	          0.69883062	         -0.74472126	         -0.25821849	         -0.61539699	         -2.29279466	         -0.37318721	          0.92637445	
          2.22000000	          0.56580608	         -0.73779049	         -0.36814220	         -0.36360619	         -0.62398518	          0.69168854	         -0.74003650	         -0.25750280	         -0.62131980	         -2.30265219	         -0.37701009	          0.91657131	
          2.23000000	          0.57255564	         -0.73100158	         -0.37123676	         -0.36359161	         -0.63223349	          0.68416516	         -0.73483412	         -0.25674405	         -0.62777489	         -2.31323858	         -0.38034061	          0.90635372	
          2.24000000	          0.57959203	         -0.72403995	         -0.37395083	         -0.36375608	         -0.64050181	          0.67634233	         -0.72921505	         -0.25597574	         -0.63460368	         -2.32436667	         -0.38326527	          0.89575222	
          2.25000000	          0.58683935	         -0.71689909	         -0.37639776	         -0.36390266	         -0.64877902	          0.66832674	         -0.72332181	         -0.25522828	         -0.64161054	         -2.33580229	         -0.38590503	          0.88482827	
